<?xml version="1.0" encoding="UTF-8" standalone="no"?>
<svg width="739px" height="103px" viewBox="0 0 739 103" version="1.1" xmlns="http://www.w3.org/2000/svg" xmlns:xlink="http://www.w3.org/1999/xlink" xmlns:sketch="http://www.bohemiancoding.com/sketch/ns">
    <!-- Generator: Sketch 3.1.1 (8761) - http://www.bohemiancoding.com/sketch -->
    <title>doppeldosen 2</title>
    <desc>Created with Sketch.</desc>
    <defs></defs>
    <g id="Page-1" stroke="none" stroke-width="1" fill="none" fill-rule="evenodd" sketch:type="MSPage">
        <path d="M28.8841671,85.38 C40.4991671,85.38 47.9741671,78.595 53.0341671,70.89 L53.0341671,84 L58.6691671,84 L58.6691671,0.05 L53.0341671,0.05 L53.0341671,38 C48.2041671,30.64 40.6141671,23.97 28.8841671,23.97 C14.7391671,23.97 0.364167104,35.585 0.364167104,54.675 L0.364167104,54.905 C0.364167104,73.995 14.7391671,85.38 28.8841671,85.38 L28.8841671,85.38 Z M29.4591671,79.975 C17.1541671,79.975 6.4591671,70.085 6.4591671,54.675 L6.4591671,54.445 C6.4591671,38.69 16.6941671,29.375 29.4591671,29.375 C41.6491671,29.375 53.3791671,39.495 53.3791671,54.56 L53.3791671,54.79 C53.3791671,69.74 41.6491671,79.975 29.4591671,79.975 L29.4591671,79.975 Z M107.3825,85.38 C124.8625,85.38 137.6275,71.12 137.6275,54.675 L137.6275,54.445 C137.6275,38 124.9775,23.97 107.6125,23.97 C90.1325004,23.97 77.3675004,38.23 77.3675004,54.675 L77.3675004,54.905 C77.3675004,71.35 90.0175004,85.38 107.3825,85.38 L107.3825,85.38 Z M107.6125,80.09 C94.0425004,80.09 83.4625004,68.82 83.4625004,54.675 L83.4625004,54.445 C83.4625004,40.645 93.4675004,29.26 107.3825,29.26 C120.9525,29.26 131.5325,40.53 131.5325,54.675 L131.5325,54.905 C131.5325,68.705 121.5275,80.09 107.6125,80.09 L107.6125,80.09 Z M156.325834,102.4 L161.960834,102.4 L161.960834,71.35 C166.790834,78.71 174.380834,85.38 186.110834,85.38 C200.255834,85.38 214.630834,73.765 214.630834,54.675 L214.630834,54.445 C214.630834,35.355 200.255834,23.97 186.110834,23.97 C174.495834,23.97 167.020834,30.755 161.960834,38.46 L161.960834,25.35 L156.325834,25.35 L156.325834,102.4 Z M185.535834,79.975 C173.345834,79.975 161.615834,69.855 161.615834,54.79 L161.615834,54.56 C161.615834,39.61 173.345834,29.375 185.535834,29.375 C197.840834,29.375 208.535834,39.265 208.535834,54.675 L208.535834,54.905 C208.535834,70.66 198.300834,79.975 185.535834,79.975 L185.535834,79.975 Z M233.559167,102.4 L239.194167,102.4 L239.194167,71.35 C244.024167,78.71 251.614167,85.38 263.344167,85.38 C277.489167,85.38 291.864167,73.765 291.864167,54.675 L291.864167,54.445 C291.864167,35.355 277.489167,23.97 263.344167,23.97 C251.729167,23.97 244.254167,30.755 239.194167,38.46 L239.194167,25.35 L233.559167,25.35 L233.559167,102.4 Z M262.769167,79.975 C250.579167,79.975 238.849167,69.855 238.849167,54.79 L238.849167,54.56 C238.849167,39.61 250.579167,29.375 262.769167,29.375 C275.074167,29.375 285.769167,39.265 285.769167,54.675 L285.769167,54.905 C285.769167,70.66 275.534167,79.975 262.769167,79.975 L262.769167,79.975 Z M335.5175,85.38 C346.7875,85.38 353.8025,80.78 359.7825,74.34 L355.8725,70.89 C351.0425,76.065 344.8325,80.09 335.7475,80.09 C324.2475,80.09 313.7825,71.58 312.7475,56.975 L361.3925,56.975 C361.5075,56.055 361.5075,55.71 361.5075,54.675 C361.5075,37.31 351.0425,23.97 334.5975,23.97 C318.7275,23.97 306.7675,37.54 306.7675,54.56 L306.7675,54.79 C306.7675,73.075 320.1075,85.38 335.5175,85.38 L335.5175,85.38 Z M312.7475,51.915 C313.7825,38.92 322.7525,29.145 334.3675,29.145 C347.8225,29.145 354.6075,40.07 355.4125,51.915 L312.7475,51.915 Z M380.090833,84 L385.725833,84 L385.725833,0.05 L380.090833,0.05 L380.090833,84 Z M433.979167,85.38 C445.594167,85.38 453.069167,78.595 458.129167,70.89 L458.129167,84 L463.764167,84 L463.764167,0.05 L458.129167,0.05 L458.129167,38 C453.299167,30.64 445.709167,23.97 433.979167,23.97 C419.834167,23.97 405.459167,35.585 405.459167,54.675 L405.459167,54.905 C405.459167,73.995 419.834167,85.38 433.979167,85.38 L433.979167,85.38 Z M434.554167,79.975 C422.249167,79.975 411.554167,70.085 411.554167,54.675 L411.554167,54.445 C411.554167,38.69 421.789167,29.375 434.554167,29.375 C446.744167,29.375 458.474167,39.495 458.474167,54.56 L458.474167,54.79 C458.474167,69.74 446.744167,79.975 434.554167,79.975 L434.554167,79.975 Z M512.4775,85.38 C529.9575,85.38 542.7225,71.12 542.7225,54.675 L542.7225,54.445 C542.7225,38 530.0725,23.97 512.7075,23.97 C495.2275,23.97 482.4625,38.23 482.4625,54.675 L482.4625,54.905 C482.4625,71.35 495.1125,85.38 512.4775,85.38 L512.4775,85.38 Z M512.7075,80.09 C499.1375,80.09 488.5575,68.82 488.5575,54.675 L488.5575,54.445 C488.5575,40.645 498.5625,29.26 512.4775,29.26 C526.0475,29.26 536.6275,40.53 536.6275,54.675 L536.6275,54.905 C536.6275,68.705 526.6225,80.09 512.7075,80.09 L512.7075,80.09 Z M580.395833,85.15 C591.665833,85.15 600.635833,78.48 600.635833,68.015 L600.635833,67.785 C600.635833,57.435 590.745833,53.985 581.315833,51.34 C572.920833,48.925 564.985833,46.51 564.985833,39.955 L564.985833,39.725 C564.985833,33.86 570.275833,29.49 578.325833,29.49 C584.535833,29.49 590.975833,31.79 596.380833,35.355 L599.370833,30.64 C593.505833,26.73 585.570833,24.2 578.555833,24.2 C567.170833,24.2 559.235833,30.985 559.235833,40.415 L559.235833,40.645 C559.235833,51.11 569.815833,53.985 579.360833,56.745 C587.525833,59.045 594.885833,61.575 594.885833,68.475 L594.885833,68.705 C594.885833,75.49 588.675833,79.86 580.740833,79.86 C573.265833,79.86 566.135833,77.1 559.695833,72.155 L556.360833,76.64 C562.570833,81.7 571.885833,85.15 580.395833,85.15 L580.395833,85.15 Z M644.634166,85.38 C655.904166,85.38 662.919166,80.78 668.899166,74.34 L664.989166,70.89 C660.159166,76.065 653.949166,80.09 644.864166,80.09 C633.364166,80.09 622.899166,71.58 621.864166,56.975 L670.509166,56.975 C670.624166,56.055 670.624166,55.71 670.624166,54.675 C670.624166,37.31 660.159166,23.97 643.714166,23.97 C627.844166,23.97 615.884166,37.54 615.884166,54.56 L615.884166,54.79 C615.884166,73.075 629.224166,85.38 644.634166,85.38 L644.634166,85.38 Z M621.864166,51.915 C622.899166,38.92 631.869166,29.145 643.484166,29.145 C656.939166,29.145 663.724166,40.07 664.529166,51.915 L621.864166,51.915 Z M688.4025,84 L694.0375,84 L694.0375,50.075 C694.0375,37.885 702.8925,29.145 714.3925,29.145 C726.2375,29.145 733.0225,37.08 733.0225,49.155 L733.0225,84 L738.6575,84 L738.6575,48.12 C738.6575,34.09 730.0325,23.97 715.1975,23.97 C704.5025,23.97 697.9475,29.375 694.0375,36.275 L694.0375,25.35 L688.4025,25.35 L688.4025,84 Z" id="doppeldosen-2" fill="#0687C8" sketch:type="MSShapeGroup"></path>
    </g>
</svg>