<?xml version="1.0" encoding="UTF-8" standalone="no"?>
<svg width="726px" height="526px" viewBox="0 0 726 526" version="1.1" xmlns="http://www.w3.org/2000/svg" xmlns:xlink="http://www.w3.org/1999/xlink" xmlns:sketch="http://www.bohemiancoding.com/sketch/ns">
    <!-- Generator: Sketch 3.1.1 (8761) - http://www.bohemiancoding.com/sketch -->
    <title>logo-square</title>
    <desc>Created with Sketch.</desc>
    <defs></defs>
    <g id="Page-1" stroke="none" stroke-width="1" fill="none" fill-rule="evenodd" sketch:type="MSPage">
        <g id="logo-square" sketch:type="MSLayerGroup" transform="translate(0.000000, -125.000000)" fill="#0687C8">
            <g id="Page-1" sketch:type="MSShapeGroup">
                <g id="Logo-Test">
                    <g id="dp-+-doppeldosen">
                        <path d="M214.523047,450.5 C261.883682,450.5 292.268297,422.828841 312.71333,391.381543 L312.71333,444.747934 L335.74167,444.747934 L335.74167,102.5 L312.71333,102.5 L312.71333,257.166667 C293.203208,227.254717 262.351137,200.052561 214.523047,199.965565 C157.173623,200.052561 98.7416698,247.421833 98.7416698,325.232782 L98.7416698,326.19146 C98.7416698,404.068733 157.173623,450.5 214.523047,450.5 L214.523047,450.5 Z M217.482787,429.5 C167.822552,429.5 124.74167,388.845455 124.74167,325.660247 L124.74167,324.698767 C124.74167,259.790909 165.969611,221.5 217.482787,221.5 C266.49167,221.5 313.74167,263.1 313.74167,325.01926 L313.74167,325.98074 C313.74167,387.427273 266.49167,429.5 217.482787,429.5 L217.482787,429.5 Z M383.74167,517.5 L406.77001,517.5 L406.77001,391.309237 C426.280132,421.145161 457.132203,448.274194 504.960293,448.319277 C562.309717,448.274194 620.74167,401.032258 620.74167,323.409639 L620.74167,322.448795 C620.74167,244.806452 562.309717,198.5 504.960293,198.5 C457.599658,198.5 427.215043,226.096774 406.77001,257.431727 L406.77001,204.26506 L383.74167,204.26506 L383.74167,517.5 L383.74167,517.5 Z M503.000553,429.5 C453.99167,429.5 406.74167,387.9 406.74167,325.98074 L406.74167,325.01926 C406.74167,263.572727 453.99167,221.5 503.000553,221.5 C552.660788,221.5 595.74167,262.154545 595.74167,325.660247 L595.74167,326.301233 C595.74167,391.209091 554.513729,429.5 503.000553,429.5 L503.000553,429.5 Z" id="dp" transform="translate(359.741670, 310.000000) rotate(-30.000000) translate(-359.741670, -310.000000) "></path>
                        <g id="doppeldosen" transform="translate(0.000000, 548.000000)">
                            <path d="M28.8841671,85.38 C40.4991671,85.38 47.9741671,78.595 53.0341671,70.89 L53.0341671,84 L58.6691671,84 L58.6691671,0.05 L53.0341671,0.05 L53.0341671,38 C48.2041671,30.64 40.6141671,23.97 28.8841671,23.97 C14.7391671,23.97 0.3641671,35.585 0.3641671,54.675 L0.3641671,54.905 C0.3641671,73.995 14.7391671,85.38 28.8841671,85.38 L28.8841671,85.38 Z M29.4591671,79.975 C17.1541671,79.975 6.4591671,70.085 6.4591671,54.675 L6.4591671,54.445 C6.4591671,38.69 16.6941671,29.375 29.4591671,29.375 C41.6491671,29.375 53.3791671,39.495 53.3791671,54.56 L53.3791671,54.79 C53.3791671,69.74 41.6491671,79.975 29.4591671,79.975 L29.4591671,79.975 Z M106.049167,85.38 C123.529167,85.38 136.294167,71.12 136.294167,54.675 L136.294167,54.445 C136.294167,38 123.644167,23.97 106.279167,23.97 C88.7991671,23.97 76.0341671,38.23 76.0341671,54.675 L76.0341671,54.905 C76.0341671,71.35 88.6841671,85.38 106.049167,85.38 L106.049167,85.38 Z M106.279167,80.09 C92.7091671,80.09 82.1291671,68.82 82.1291671,54.675 L82.1291671,54.445 C82.1291671,40.645 92.1341671,29.26 106.049167,29.26 C119.619167,29.26 130.199167,40.53 130.199167,54.675 L130.199167,54.905 C130.199167,68.705 120.194167,80.09 106.279167,80.09 L106.279167,80.09 Z M153.659167,102.4 L159.294167,102.4 L159.294167,71.35 C164.124167,78.71 171.714167,85.38 183.444167,85.38 C197.589167,85.38 211.964167,73.765 211.964167,54.675 L211.964167,54.445 C211.964167,35.355 197.589167,23.97 183.444167,23.97 C171.829167,23.97 164.354167,30.755 159.294167,38.46 L159.294167,25.35 L153.659167,25.35 L153.659167,102.4 Z M182.869167,79.975 C170.679167,79.975 158.949167,69.855 158.949167,54.79 L158.949167,54.56 C158.949167,39.61 170.679167,29.375 182.869167,29.375 C195.174167,29.375 205.869167,39.265 205.869167,54.675 L205.869167,54.905 C205.869167,70.66 195.634167,79.975 182.869167,79.975 L182.869167,79.975 Z M229.559167,102.4 L235.194167,102.4 L235.194167,71.35 C240.024167,78.71 247.614167,85.38 259.344167,85.38 C273.489167,85.38 287.864167,73.765 287.864167,54.675 L287.864167,54.445 C287.864167,35.355 273.489167,23.97 259.344167,23.97 C247.729167,23.97 240.254167,30.755 235.194167,38.46 L235.194167,25.35 L229.559167,25.35 L229.559167,102.4 Z M258.769167,79.975 C246.579167,79.975 234.849167,69.855 234.849167,54.79 L234.849167,54.56 C234.849167,39.61 246.579167,29.375 258.769167,29.375 C271.074167,29.375 281.769167,39.265 281.769167,54.675 L281.769167,54.905 C281.769167,70.66 271.534167,79.975 258.769167,79.975 L258.769167,79.975 Z M330.184167,85.38 C341.454167,85.38 348.469167,80.78 354.449167,74.34 L350.539167,70.89 C345.709167,76.065 339.499167,80.09 330.414167,80.09 C318.914167,80.09 308.449167,71.58 307.414167,56.975 L356.059167,56.975 C356.174167,56.055 356.174167,55.71 356.174167,54.675 C356.174167,37.31 345.709167,23.97 329.264167,23.97 C313.394167,23.97 301.434167,37.54 301.434167,54.56 L301.434167,54.79 C301.434167,73.075 314.774167,85.38 330.184167,85.38 L330.184167,85.38 Z M307.414167,51.915 C308.449167,38.92 317.419167,29.145 329.034167,29.145 C342.489167,29.145 349.274167,40.07 350.079167,51.915 L307.414167,51.915 Z M373.424167,84 L379.059167,84 L379.059167,0.05 L373.424167,0.05 L373.424167,84 Z M425.979167,85.38 C437.594167,85.38 445.069167,78.595 450.129167,70.89 L450.129167,84 L455.764167,84 L455.764167,0.05 L450.129167,0.05 L450.129167,38 C445.299167,30.64 437.709167,23.97 425.979167,23.97 C411.834167,23.97 397.459167,35.585 397.459167,54.675 L397.459167,54.905 C397.459167,73.995 411.834167,85.38 425.979167,85.38 L425.979167,85.38 Z M426.554167,79.975 C414.249167,79.975 403.554167,70.085 403.554167,54.675 L403.554167,54.445 C403.554167,38.69 413.789167,29.375 426.554167,29.375 C438.744167,29.375 450.474167,39.495 450.474167,54.56 L450.474167,54.79 C450.474167,69.74 438.744167,79.975 426.554167,79.975 L426.554167,79.975 Z M503.144167,85.38 C520.624167,85.38 533.389167,71.12 533.389167,54.675 L533.389167,54.445 C533.389167,38 520.739167,23.97 503.374167,23.97 C485.894167,23.97 473.129167,38.23 473.129167,54.675 L473.129167,54.905 C473.129167,71.35 485.779167,85.38 503.144167,85.38 L503.144167,85.38 Z M503.374167,80.09 C489.804167,80.09 479.224167,68.82 479.224167,54.675 L479.224167,54.445 C479.224167,40.645 489.229167,29.26 503.144167,29.26 C516.714167,29.26 527.294167,40.53 527.294167,54.675 L527.294167,54.905 C527.294167,68.705 517.289167,80.09 503.374167,80.09 L503.374167,80.09 Z M569.729167,85.15 C580.999167,85.15 589.969167,78.48 589.969167,68.015 L589.969167,67.785 C589.969167,57.435 580.079167,53.985 570.649167,51.34 C562.254167,48.925 554.319167,46.51 554.319167,39.955 L554.319167,39.725 C554.319167,33.86 559.609167,29.49 567.659167,29.49 C573.869167,29.49 580.309167,31.79 585.714167,35.355 L588.704167,30.64 C582.839167,26.73 574.904167,24.2 567.889167,24.2 C556.504167,24.2 548.569167,30.985 548.569167,40.415 L548.569167,40.645 C548.569167,51.11 559.149167,53.985 568.694167,56.745 C576.859167,59.045 584.219167,61.575 584.219167,68.475 L584.219167,68.705 C584.219167,75.49 578.009167,79.86 570.074167,79.86 C562.599167,79.86 555.469167,77.1 549.029167,72.155 L545.694167,76.64 C551.904167,81.7 561.219167,85.15 569.729167,85.15 L569.729167,85.15 Z M632.634167,85.38 C643.904167,85.38 650.919167,80.78 656.899167,74.34 L652.989167,70.89 C648.159167,76.065 641.949167,80.09 632.864167,80.09 C621.364167,80.09 610.899167,71.58 609.864167,56.975 L658.509167,56.975 C658.624167,56.055 658.624167,55.71 658.624167,54.675 C658.624167,37.31 648.159167,23.97 631.714167,23.97 C615.844167,23.97 603.884167,37.54 603.884167,54.56 L603.884167,54.79 C603.884167,73.075 617.224167,85.38 632.634167,85.38 L632.634167,85.38 Z M609.864167,51.915 C610.899167,38.92 619.869167,29.145 631.484167,29.145 C644.939167,29.145 651.724167,40.07 652.529167,51.915 L609.864167,51.915 Z M675.069167,84 L680.704167,84 L680.704167,50.075 C680.704167,37.885 689.559167,29.145 701.059167,29.145 C712.904167,29.145 719.689167,37.08 719.689167,49.155 L719.689167,84 L725.324167,84 L725.324167,48.12 C725.324167,34.09 716.699167,23.97 701.864167,23.97 C691.169167,23.97 684.614167,29.375 680.704167,36.275 L680.704167,25.35 L675.069167,25.35 L675.069167,84 Z"></path>
                        </g>
                    </g>
                </g>
            </g>
        </g>
    </g>
</svg>