<?xml version="1.0" encoding="UTF-8" standalone="no"?>
<svg width="806px" height="555px" viewBox="0 0 806 555" version="1.1" xmlns="http://www.w3.org/2000/svg" xmlns:xlink="http://www.w3.org/1999/xlink" xmlns:sketch="http://www.bohemiancoding.com/sketch/ns">
    <!-- Generator: Sketch 3.1.1 (8761) - http://www.bohemiancoding.com/sketch -->
    <title>logo</title>
    <desc>Created with Sketch.</desc>
    <defs>
        <filter x="-50%" y="-50%" width="200%" height="200%" filterUnits="objectBoundingBox" id="filter-1">
            <feOffset dx="2" dy="2" in="SourceAlpha" result="shadowOffsetOuter1"></feOffset>
            <feGaussianBlur stdDeviation="2" in="shadowOffsetOuter1" result="shadowBlurOuter1"></feGaussianBlur>
            <feColorMatrix values="0 0 0 0 0   0 0 0 0 0   0 0 0 0 0  0 0 0 0.7 0" in="shadowBlurOuter1" type="matrix" result="shadowMatrixOuter1"></feColorMatrix>
            <feMerge>
                <feMergeNode in="shadowMatrixOuter1"></feMergeNode>
                <feMergeNode in="SourceGraphic"></feMergeNode>
            </feMerge>
        </filter>
        <filter x="-50%" y="-50%" width="200%" height="200%" filterUnits="objectBoundingBox" id="filter-2">
            <feOffset dx="2" dy="2" in="SourceAlpha" result="shadowOffsetOuter1"></feOffset>
            <feGaussianBlur stdDeviation="2" in="shadowOffsetOuter1" result="shadowBlurOuter1"></feGaussianBlur>
            <feColorMatrix values="0 0 0 0 0   0 0 0 0 0   0 0 0 0 0  0 0 0 0.7 0" in="shadowBlurOuter1" type="matrix" result="shadowMatrixOuter1"></feColorMatrix>
            <feMerge>
                <feMergeNode in="shadowMatrixOuter1"></feMergeNode>
                <feMergeNode in="SourceGraphic"></feMergeNode>
            </feMerge>
        </filter>
    </defs>
    <g id="Page-1" stroke="none" stroke-width="1" fill="none" fill-rule="evenodd" sketch:type="MSPage">
        <g id="Logo-Test" sketch:type="MSArtboardGroup" transform="translate(-563.000000, -232.000000)">
            <g id="dp-+-doppeldosen" sketch:type="MSLayerGroup" transform="translate(537.000000, 117.000000)">
                <path d="M264.781377,457 C312.142012,457 342.526627,429.328841 362.97166,397.881543 L362.97166,451.247934 L386,451.247934 L386,109 L362.97166,109 L362.97166,263.666667 C343.461538,233.754717 312.609467,206.552561 264.781377,206.465565 C207.431953,206.552561 149,253.921833 149,331.732782 L149,332.69146 C149,410.568733 207.431953,457 264.781377,457 Z M267.741117,436 C218.080882,436 175,395.345455 175,332.160247 L175,331.198767 C175,266.290909 216.227941,228 267.741117,228 C316.75,228 364,269.6 364,331.51926 L364,332.48074 C364,393.927273 316.75,436 267.741117,436 Z M434,524 L457.02834,524 L457.02834,397.809237 C476.538462,427.645161 507.390533,454.774194 555.218623,454.819277 C612.568047,454.774194 671,407.532258 671,329.909639 L671,328.948795 C671,251.306452 612.568047,205 555.218623,205 C507.857988,205 477.473373,232.596774 457.02834,263.931727 L457.02834,210.76506 L434,210.76506 L434,524 Z M553.258883,436 C504.25,436 457,394.4 457,332.48074 L457,331.51926 C457,270.072727 504.25,228 553.258883,228 C602.919118,228 646,268.654545 646,332.160247 L646,332.801233 C646,397.709091 604.772059,436 553.258883,436 Z" id="dp" fill="#0687C8" filter="url(#filter-1)" sketch:type="MSShapeGroup" transform="translate(423.000000, 316.500000) rotate(-30.000000) translate(-423.000000, -316.500000) "></path>
                <text id="doppeldosen" fill="white" filter="url(#filter-2)" sketch:type="MSTextLayer" font-family="Gotham" font-size="115" font-weight="260" sketch:alignment="middle" letter-spacing="1.33333325">
                    <tspan x="45.4641671" y="645" fill="#0687C8">doppeldosen</tspan>
                </text>
            </g>
        </g>
    </g>
</svg>